<?xml version="1.0" encoding="utf-8"?>
<!-- Generator: Adobe Illustrator 26.0.1, SVG Export Plug-In . SVG Version: 6.00 Build 0)  -->
<svg version="1.1" id="Capa_1" xmlns="http://www.w3.org/2000/svg" xmlns:xlink="http://www.w3.org/1999/xlink" x="0px" y="0px"
	 viewBox="0 0 500 500" style="enable-background:new 0 0 500 500;" xml:space="preserve">
<style type="text/css">
	.st0{fill:#FFFFFF;}
	.st1{font-family:'Impact';}
	.st2{font-size:83px;}
	.st3{fill:#EC9021;}
	.st4{fill:#1A1B36;}
	.st5{fill:#BAE3FA;}
	.st6{font-family:'Roboto-Thin';}
	.st7{font-size:35px;}
</style>
<text transform="matrix(0.9554 0 0 1 77.2402 309.3999)" class="st0 st1 st2">Lean</text>
<path class="st3" d="M298.6,288.93c-3.83-3.42-7.65-6.85-11.48-10.27c-1.71,1.41-3.16,2.56-4.26,3.41c-1.47,1.14-1.89,1.43-2.56,1.7
	c-0.69,0.28-3.23,1.32-5.11,0c-1.37-0.96-1.86-2.82-1.7-4.26c0.24-2.13,1.92-3.48,5.11-5.96c2-1.55,3.8-2.67,5.11-3.41
	c-2.69-1.2-4.67-1.13-5.96-0.85c-2.14,0.46-2.52,1.49-5.96,2.56c-0.78,0.24-2.3,0.66-4.26,0.85c-0.61,0.06-2.39,0.21-4.26,0
	c-3.82-0.43-6.85-2.23-8.52-3.41l-1.62-0.34c3.64-10.41,13.44-18.22,25.2-18.87c0-5.57,0-11.14,0-16.7
	c-24.6,0-44.54,19.94-44.54,44.54s19.94,44.54,44.54,44.54c0-5.57,0-11.14,0-16.7c-12.6-0.7-22.84-9.62-25.83-21.02
	c3.87,1.38,7.75,2.77,11.62,4.15c0.17-0.12,0.69,0.04,1.41,0.36c0.02-0.02,0.02-0.04,0.04-0.06c1.48-1.57,3.8-1.99,5.18-0.94
	c0.91,0.7,1.17,1.85,0.83,3.02c1.15-0.33,2.37-0.18,3.27,0.5c0.82,0.63,1.18,1.58,1.1,2.56c0.59,0.07,1.15,0.27,1.62,0.63
	c0.77,0.59,1.14,1.46,1.12,2.37c0.81-0.03,1.61,0.18,2.23,0.66c0.62,0.48,0.93,1.16,1.03,1.88c1.48,1.1,2.56,1.96,2.88,2.34
	c0.76,0.89,2.1,1,3,0.24c0.89-0.76,1-2.1,0.24-3l-2.77-3.25c-0.13-0.12-0.19-0.19-0.19-0.19c0.02-0.02,1.11,0.91,3.28,2.8
	c0.76,0.89,2.1,1,3,0.24c0.89-0.76,1-2.1,0.24-3c-2.02-2.11-2.97-3.23-2.86-3.35c0.12-0.12,1.39,0.84,3.82,2.88
	c0.76,0.89,2.1,1,3,0.24c0.89-0.76,1-2.1,0.24-3c-0.98-1.15-1.97-2.29-2.95-3.44c0.91,0.9,1.75,1.67,2.46,2.29
	c0.34,0.3,0.8,0.69,1.45,0.74c0.54,0.04,1.1-0.12,1.55-0.5C299.26,291.17,299.37,289.83,298.6,288.93z"/>
<path class="st4" d="M281.74,299.99c-0.72-0.91-2-1.16-3.25-0.79c0.29-0.92,0.21-1.87-0.35-2.58c-0.49-0.62-1.23-0.93-2.05-0.96
	c0.05-0.67-0.1-1.31-0.51-1.83c-0.8-1.01-2.29-1.21-3.66-0.64c0.46-1.11,0.4-2.31-0.29-3.18c-1.11-1.4-3.41-1.43-5.14-0.06
	c-1.73,1.37-2.23,3.61-1.12,5.01c0.91,1.15,2.61,1.36,4.14,0.66c-0.38,0.98-0.31,2.02,0.29,2.78c0.49,0.62,1.23,0.93,2.05,0.96
	c-0.05,0.67,0.1,1.31,0.51,1.83c0.72,0.91,2,1.16,3.25,0.79c-0.29,0.92-0.21,1.87,0.35,2.58c1.01,1.28,3.12,1.29,4.72,0.02
	C282.27,303.32,282.75,301.27,281.74,299.99z"/>
<path class="st4" d="M392.47,155.43c-0.33-9.9-0.88-26.24-11.14-41.76c-2.27-3.43-8.93-9.71-22.27-22.27
	c-15.95-15.03-22.27-19.86-30.62-30.62c-5.21-6.71-8.86-12.69-11.14-16.7c-0.36-0.17-2.93-1.31-5.57,0
	c-1.7,0.84-2.51,2.24-2.78,2.78c0,62.17,0,124.34,0,186.51c-5.86-0.89-14.64-1.6-25.05,0v15.38c11.64,0.55,21.49,7.88,25.68,18.14
	c-2.06,0.74-3.76,5.29-7.59,5.45c-2.4,0.1-4.4-1.58-5.57-2.78c-1.74-0.42-4.79-0.88-8.35,0c-4.79,1.19-9.52,4.23-11.14,8.35
	c-0.36,0.91-0.94,2.46-0.15,3.54c0.84,1.15,2.69,1.03,3,1c1-1,2-2,3-3c1.33-1.33,2.67-2.67,4-4c1.37,1.34,3.02,2.72,5,4
	c7.33,4.74,14.92,5.34,19.1,5.31c-2.99,12.38-13.84,21.69-26.99,22.31v15.38c20.66,0.15,39.48-14.8,44.54-36.19
	c0-55.68,0-111.35,0-167.03c7.19-1.94,12.62-1.37,16.7,0c22.3,7.51,33.61,48.9,27.84,103C380.27,210.95,393.52,186.71,392.47,155.43
	z"/>
<text transform="matrix(0.9554 0 0 1 340.2898 308.9951)" class="st0 st1 st2">ro</text>
<ellipse class="st5" cx="285" cy="332.5" rx="50" ry="2.5"/>
<text transform="matrix(1 0 0 1 103.1201 238.5601)" class="st0 st6 st7">Somos</text>
</svg>
