<svg id="Capa_1" data-name="Capa 1" xmlns="http://www.w3.org/2000/svg" viewBox="0 0 331.97 293.38"><defs><style>.cls-1{font-size:83px;font-family:Impact;}.cls-1,.cls-5{fill:#1d1d1b;}.cls-2{fill:#ec9027;}.cls-3{fill:#1a1b36;}.cls-4{fill:#616160;}.cls-5{font-size:35px;font-family:Roboto-Thin, Roboto;font-weight:200;}</style></defs><text class="cls-1" transform="translate(0 265.94) scale(0.96 1)">Lean</text><path class="cls-2" d="M242.6,250.93l-11.47-10.27c-1.71,1.41-3.17,2.56-4.26,3.41a10.34,10.34,0,0,1-2.56,1.7c-.69.28-3.23,1.32-5.11,0a4.68,4.68,0,0,1-1.7-4.26c.23-2.13,1.92-3.48,5.11-6a41.46,41.46,0,0,1,5.11-3.41,9.48,9.48,0,0,0-6-.85c-2.15.46-2.53,1.49-6,2.55a21.64,21.64,0,0,1-8.52.86,18.75,18.75,0,0,1-8.52-3.41l-1.62-.34a28.41,28.41,0,0,1,25.2-18.87v-16.7a44.54,44.54,0,0,0,0,89.08v-16.7a28.44,28.44,0,0,1-25.82-21l11.62,4.15c.17-.11.68,0,1.41.36a.21.21,0,0,1,0-.06c1.48-1.57,3.79-2,5.17-.93a2.71,2.71,0,0,1,.84,3,3.72,3.72,0,0,1,3.26.5,2.89,2.89,0,0,1,1.11,2.56,3.36,3.36,0,0,1,1.62.63,2.86,2.86,0,0,1,1.12,2.38,3.39,3.39,0,0,1,2.24.66,2.78,2.78,0,0,1,1,1.88,23.59,23.59,0,0,1,2.88,2.34,2.12,2.12,0,1,0,3.23-2.76l-2.76-3.25-.19-.19s1.11.91,3.29,2.8a2.12,2.12,0,0,0,3.23-2.75c-2-2.11-3-3.23-2.85-3.35s1.39.84,3.82,2.88a2.12,2.12,0,0,0,3.24-2.75l-3-3.44c.91.9,1.74,1.67,2.46,2.29a2.48,2.48,0,0,0,1.45.74,2.13,2.13,0,0,0,1.78-3.5Z" transform="translate(-21.24 -5.46)"/><path class="cls-3" d="M225.74,262a3,3,0,0,0-3.25-.79,2.73,2.73,0,0,0-.36-2.58,2.64,2.64,0,0,0-2-.95,2.56,2.56,0,0,0-.5-1.83,3.08,3.08,0,0,0-3.67-.64,3.09,3.09,0,0,0-.29-3.17c-1.11-1.41-3.41-1.44-5.13-.07s-2.23,3.61-1.13,5a3.4,3.4,0,0,0,4.14.66,2.82,2.82,0,0,0,.29,2.78,2.66,2.66,0,0,0,2.05,1,2.59,2.59,0,0,0,.51,1.83,3,3,0,0,0,3.25.78,2.73,2.73,0,0,0,.35,2.58c1,1.28,3.12,1.29,4.72,0S226.75,263.27,225.74,262Z" transform="translate(-21.24 -5.46)"/><path class="cls-3" d="M336.47,117.43c-.33-9.9-.88-26.24-11.14-41.76-2.26-3.43-8.93-9.71-22.27-22.27-15.95-15-22.26-19.86-30.62-30.62a138.68,138.68,0,0,1-11.13-16.7,6.66,6.66,0,0,0-5.57,0A6.36,6.36,0,0,0,253,8.86V195.38a82.93,82.93,0,0,0-25,0v15.38a29.23,29.23,0,0,1,25.68,18.14c-2.06.74-3.75,5.29-7.59,5.45-2.4.1-4.39-1.58-5.56-2.78a17.66,17.66,0,0,0-8.35,0c-4.8,1.18-9.53,4.23-11.14,8.35-.35.91-.94,2.46-.15,3.54s2.69,1,3,1l3-3,4-4a31.93,31.93,0,0,0,5,4,34.76,34.76,0,0,0,19.11,5.31,29.22,29.22,0,0,1-27,22.31v15.38c20.66.15,39.48-14.8,44.54-36.19v-167c7.19-1.94,12.62-1.37,16.7,0,22.3,7.51,33.62,48.91,27.84,103C324.27,173,337.52,148.71,336.47,117.43Z" transform="translate(-21.24 -5.46)"/><text class="cls-1" transform="translate(263.05 265.53) scale(0.96 1)">ro</text><ellipse class="cls-4" cx="207.76" cy="289.04" rx="50" ry="2.5"/><text class="cls-5" transform="translate(25.88 195.1)">Somos</text></svg>