<svg id="Capa_1" data-name="Capa 1" xmlns="http://www.w3.org/2000/svg" viewBox="0 0 356.21 304.5"><defs><style>.cls-1{fill:#fff;}.cls-2{font-size:70.68px;font-family:Impact;}.cls-2,.cls-6{fill:#1d1d1b;}.cls-3{fill:#ec9027;}.cls-4{fill:#1a1b36;}.cls-5{fill:#616160;}.cls-6{font-size:29.81px;font-family:Roboto-Thin, Roboto;font-weight:200;}</style></defs><rect class="cls-1" width="356.21" height="304.5" rx="33.94"/><text class="cls-2" transform="translate(27.6 252.75) scale(0.96 1)">Lean</text><path class="cls-3" d="M239.51,258.57l-9.78-8.75c-1.45,1.2-2.69,2.18-3.62,2.9a9.33,9.33,0,0,1-2.18,1.46c-.59.24-2.75,1.12-4.35,0a4,4,0,0,1-1.45-3.63c.2-1.82,1.63-3,4.35-5.08a36.38,36.38,0,0,1,4.35-2.9,8.11,8.11,0,0,0-5.08-.73c-1.82.39-2.14,1.27-5.07,2.18a18.81,18.81,0,0,1-3.63.72,17.46,17.46,0,0,1-3.63,0,15.78,15.78,0,0,1-7.25-2.9l-1.38-.29a24.21,24.21,0,0,1,21.46-16.07V211.26a37.93,37.93,0,1,0,0,75.86V272.9a24.22,24.22,0,0,1-22-17.91l9.9,3.54c.14-.1.58,0,1.2.31l0-.06c1.26-1.34,3.24-1.69,4.41-.79a2.3,2.3,0,0,1,.71,2.56,3.18,3.18,0,0,1,2.78.43,2.43,2.43,0,0,1,.94,2.18,2.79,2.79,0,0,1,1.38.54,2.43,2.43,0,0,1,1,2,2.94,2.94,0,0,1,1.9.56,2.4,2.4,0,0,1,.88,1.6,20.13,20.13,0,0,1,2.45,2,1.81,1.81,0,0,0,2.76-2.35l-2.36-2.77c-.11-.1-.16-.16-.15-.16s.94.78,2.79,2.39a1.81,1.81,0,0,0,2.76-2.35q-2.58-2.7-2.43-2.85t3.25,2.45a1.81,1.81,0,1,0,2.76-2.34L234.66,259c.77.77,1.48,1.42,2.09,1.95a2.22,2.22,0,0,0,1.24.63,1.75,1.75,0,0,0,1.31-.43A1.8,1.8,0,0,0,239.51,258.57Z" transform="translate(-23.4 -23.25)"/><path class="cls-4" d="M225.14,268a2.5,2.5,0,0,0-2.76-.67,2.36,2.36,0,0,0-.3-2.2,2.28,2.28,0,0,0-1.75-.81,2.16,2.16,0,0,0-.43-1.56,2.61,2.61,0,0,0-3.12-.54,2.67,2.67,0,0,0-.25-2.71c-.94-1.19-2.9-1.22-4.37-.05s-1.9,3.07-1,4.26a2.89,2.89,0,0,0,3.53.56,2.39,2.39,0,0,0,.24,2.37,2.28,2.28,0,0,0,1.75.82,2.13,2.13,0,0,0,.43,1.55,2.5,2.5,0,0,0,2.77.67,2.33,2.33,0,0,0,.3,2.2c.86,1.09,2.66,1.1,4,0S226,269.07,225.14,268Z" transform="translate(-23.4 -23.25)"/><path class="cls-4" d="M319.44,144.88c-.28-8.43-.75-22.34-9.48-35.56-1.93-2.92-7.61-8.27-19-19-13.58-12.8-19-16.92-26.07-26.08a119.79,119.79,0,0,1-9.49-14.22,5.66,5.66,0,0,0-4.74,0,5.42,5.42,0,0,0-2.37,2.37V211.26a70.62,70.62,0,0,0-21.33,0v13.1a24.9,24.9,0,0,1,21.87,15.45c-1.75.63-3.2,4.5-6.46,4.64-2.05.09-3.75-1.34-4.75-2.37a15,15,0,0,0-7.11,0c-4.08,1-8.11,3.6-9.48,7.11-.3.77-.8,2.1-.13,3a3,3,0,0,0,2.56.85L226,250.5l3.41-3.4a26.78,26.78,0,0,0,4.26,3.4A29.6,29.6,0,0,0,250,255a24.89,24.89,0,0,1-23,19v13.1c17.59.13,33.62-12.6,37.93-30.82V114.06c6.12-1.65,10.75-1.17,14.22,0,19,6.4,28.62,41.65,23.71,87.72C309.06,192.16,320.34,171.52,319.44,144.88Z" transform="translate(-23.4 -23.25)"/><text class="cls-2" transform="translate(251.61 252.41) scale(0.96 1)">ro</text><ellipse class="cls-5" cx="204.53" cy="272.42" rx="42.58" ry="2.13"/><text class="cls-6" transform="translate(49.64 192.42)">Somos</text></svg>