<svg id="Capa_1" data-name="Capa 1" xmlns="http://www.w3.org/2000/svg" viewBox="0 0 361 308"><defs><style>.cls-1{fill:#fff;}.cls-2{font-size:63.22px;font-family:Impact;}.cls-2,.cls-6{fill:#1d1d1b;}.cls-3{fill:#ec9027;}.cls-4{fill:#1a1b36;}.cls-5{fill:#616160;}.cls-6{font-size:26.66px;font-family:Roboto-Thin, Roboto;font-weight:200;}</style></defs><rect class="cls-1" width="361" height="308" rx="29.32"/><text class="cls-2" transform="translate(54.07 233.34) scale(0.96 1)">Lean</text><path class="cls-3" d="M243.68,237.75l-8.74-7.83c-1.3,1.07-2.41,2-3.24,2.6a7.9,7.9,0,0,1-1.95,1.29c-.53.22-2.46,1-3.89,0a3.55,3.55,0,0,1-1.3-3.24c.18-1.63,1.46-2.65,3.89-4.54a32.55,32.55,0,0,1,3.89-2.6,7.22,7.22,0,0,0-4.54-.65c-1.63.35-1.92,1.14-4.54,1.95a17,17,0,0,1-3.24.65,16.8,16.8,0,0,1-3.25,0,14.24,14.24,0,0,1-6.49-2.6l-1.23-.26a21.63,21.63,0,0,1,19.19-14.37V195.43a33.93,33.93,0,1,0,0,67.85V250.56a21.65,21.65,0,0,1-19.67-16l8.85,3.16c.13-.09.52,0,1.07.27,0,0,0,0,0,0a3.09,3.09,0,0,1,3.94-.72,2.07,2.07,0,0,1,.63,2.3,2.82,2.82,0,0,1,2.49.38,2.17,2.17,0,0,1,.84,1.95,2.62,2.62,0,0,1,1.24.48,2.2,2.2,0,0,1,.85,1.81,2.59,2.59,0,0,1,1.7.5,2.12,2.12,0,0,1,.79,1.43,18,18,0,0,1,2.19,1.79,1.62,1.62,0,0,0,2.47-2.1l-2.11-2.48-.14-.14s.85.69,2.5,2.13a1.62,1.62,0,0,0,2.47-2.1c-1.54-1.61-2.26-2.46-2.18-2.55s1.06.64,2.92,2.2a1.62,1.62,0,1,0,2.46-2.1l-2.25-2.62c.7.69,1.33,1.27,1.88,1.75a2,2,0,0,0,1.1.56,1.62,1.62,0,0,0,1.36-2.66Z" transform="translate(-21 -20)"/><path class="cls-4" d="M230.83,246.17a2.25,2.25,0,0,0-2.47-.6,2.1,2.1,0,0,0-.27-2,2,2,0,0,0-1.56-.72,2,2,0,0,0-.39-1.4,2.34,2.34,0,0,0-2.79-.48,2.39,2.39,0,0,0-.22-2.42,3.11,3.11,0,0,0-4.77,3.77,2.61,2.61,0,0,0,3.16.5,2.13,2.13,0,0,0,.22,2.12,2,2,0,0,0,1.56.72,2,2,0,0,0,.38,1.4,2.28,2.28,0,0,0,2.48.6,2.06,2.06,0,0,0,.27,2,2.88,2.88,0,0,0,4.4-3.48Z" transform="translate(-21 -20)"/><path class="cls-4" d="M315.18,136.06c-.25-7.54-.67-20-8.48-31.81-1.73-2.61-6.81-7.4-17-17-12.16-11.44-17-15.13-23.33-23.32a105.9,105.9,0,0,1-8.48-12.72,5.05,5.05,0,0,0-4.24,0,4.79,4.79,0,0,0-2.12,2.12V195.43a63.12,63.12,0,0,0-19.09,0v11.71A22.29,22.29,0,0,1,252.05,221c-1.57.57-2.86,4-5.78,4.15A6,6,0,0,1,242,223a13.58,13.58,0,0,0-6.36,0c-3.65.91-7.25,3.23-8.48,6.37-.27.69-.71,1.87-.11,2.69a2.74,2.74,0,0,0,2.28.77l2.29-2.29,3.05-3.05a24.21,24.21,0,0,0,3.8,3.05,26.53,26.53,0,0,0,14.56,4.05,22.27,22.27,0,0,1-20.57,17v11.71c15.74.12,30.07-11.27,33.93-27.56V108.49c5.48-1.48,9.61-1,12.72,0,17,5.72,25.61,37.25,21.21,78.46C305.89,178.34,316,159.88,315.18,136.06Z" transform="translate(-21 -20)"/><text class="cls-2" transform="translate(254.44 233.03) scale(0.96 1)">ro</text><ellipse class="cls-5" cx="212.32" cy="250.93" rx="38.09" ry="1.9"/><text class="cls-6" transform="translate(73.78 179.38)">Somos</text></svg>